<svg xmlns="http://www.w3.org/2000/svg" width="36" height="48" viewBox="0 0 36 48"><defs><style>.a{fill:#d9895b;}</style></defs><path class="a" d="M31.506,18,36,22.828,29.68,24.8l1.5,6.421-5.946-1.36,4.775,15.235a2.8,2.8,0,0,1-1.31,2.437l-2.434-2.437L23.36,48a2.936,2.936,0,0,1-1.686-1.055,2.879,2.879,0,0,1-.655-1.852l-3.043-9.656-3,9.656A3,3,0,0,1,12.64,48l-2.9-2.907L7.3,47.531a2.8,2.8,0,0,1-1.31-2.437l4.775-15.235-5.946,1.36L6.32,24.8,0,22.828,4.494,18,0,13.172l6.32-1.921-1.5-6.421,6.413,1.5L13.155,0l4.822,4.5L22.8,0l1.967,6.328,6.413-1.5-1.5,6.421L36,13.171ZM18,9a8.673,8.673,0,0,0-6.366,2.648A8.7,8.7,0,0,0,8.99,18.023,8.7,8.7,0,0,0,11.634,24.4,8.673,8.673,0,0,0,18,27.045,8.673,8.673,0,0,0,24.367,24.4a8.7,8.7,0,0,0,2.645-6.375,8.7,8.7,0,0,0-2.645-6.375A8.673,8.673,0,0,0,18,9Z"/></svg>