<svg xmlns="http://www.w3.org/2000/svg" width="48" height="48" viewBox="0 0 48 48"><defs><style>.a{fill:#d9895b;}</style></defs><g transform="translate(0)"><path class="a" d="M19.819,11.2a1.449,1.449,0,1,0-2.9,0V23.838l8.551,5.8a1.449,1.449,0,1,0,1.609-2.406l-7.247-4.913Z" transform="translate(4.876 2.932)"/><path class="a" d="M47.157,17.669a10.783,10.783,0,0,1-2.768.841A20.363,20.363,0,1,1,31.924,6.045a10.783,10.783,0,0,1,.841-2.768A23.276,23.276,0,1,0,47.157,17.669Z" transform="translate(-1.881 -0.552)"/><path class="a" d="M23.184,6.38a16.754,16.754,0,0,0-3.29,33.175l.391-2.275A14.493,14.493,0,1,1,31,11.047a10.8,10.8,0,0,1-1.13-3.232A16.6,16.6,0,0,0,23.184,6.38Z" transform="translate(0.178 1.417)"/><path class="a" d="M39.493,8.247A7.247,7.247,0,1,1,32.247,1a7.247,7.247,0,0,1,7.247,7.247Z" transform="translate(8.507 -1)"/></g></svg>