<svg xmlns="http://www.w3.org/2000/svg" width="48.006" height="48" viewBox="0 0 48.006 48"><defs><style>.a{fill:#d9895b;}</style></defs><path class="a" d="M47.76,3.171,25.941,46.807A2,2,0,0,1,24,48a2.886,2.886,0,0,1-.512-.068,2.059,2.059,0,0,1-1.211-.767,2.141,2.141,0,0,1-.459-1.347V26.181H2.18a2.147,2.147,0,0,1-1.347-.46,2.058,2.058,0,0,1-.767-1.209A2.209,2.209,0,0,1,.2,23.08a2.055,2.055,0,0,1,.988-1.023L44.828.239A2.048,2.048,0,0,1,45.816,0,2.028,2.028,0,0,1,47.35.648a2.03,2.03,0,0,1,.631,1.176A2.078,2.078,0,0,1,47.76,3.171Z" transform="translate(-0.005)"/></svg>