<svg xmlns="http://www.w3.org/2000/svg" width="18" height="14" viewBox="0 0 18 14"><defs><style>.a{fill:#fff;}</style></defs><g transform="translate(-4.14 -7.268)"><path class="a" d="M21.543,7.268H4.737a.6.6,0,0,0-.6.6V9.077a.205.205,0,0,0,.109.145l8.833,5.068a.149.149,0,0,0,.15,0L21.8,9.227c.048-.027.176-.1.224-.131s.118-.076.118-.147V7.869a.6.6,0,0,0-.6-.6Z" transform="translate(0 0)"/><path class="a" d="M29.006,12.822a.15.15,0,0,0-.151,0l-4.847,2.865a.15.15,0,0,0-.034.232l4.848,5.25a.148.148,0,0,0,.109.048.15.15,0,0,0,.149-.15V12.952a.15.15,0,0,0-.075-.13Z" transform="translate(-6.941 -1.924)"/><path class="a" d="M15.791,18.675a.148.148,0,0,0-.185-.027L13.664,19.8a.755.755,0,0,1-.75.005l-1.71-.981a.149.149,0,0,0-.175.02L4.534,24.89a.15.15,0,0,0,.027.239.58.58,0,0,0,.3.088H21.491a.151.151,0,0,0,.11-.252Z" transform="translate(-0.122 -3.95)"/><path class="a" d="M9.478,16.162a.15.15,0,0,0-.027-.24L4.363,13a.149.149,0,0,0-.223.13v7.66a.149.149,0,0,0,.251.11l5.087-4.741Z" transform="translate(0 -1.987)"/></g></svg>