<svg xmlns="http://www.w3.org/2000/svg" width="42" height="47.999" viewBox="0 0 42 47.999"><defs><style>.a{fill:#d9895b;}</style></defs><g transform="translate(0.001 0.001)"><path class="a" d="M-13081.9-1798.274a142.574,142.574,0,0,1-8.961-11.436l-.51-.746c-2.8-4.073-6.627-9.664-6.627-16.34a16.733,16.733,0,0,1,8-14.3,17.45,17.45,0,0,1,16.606-.92,10.648,10.648,0,0,0-.759,2.86,14.509,14.509,0,0,0-14,.368,13.921,13.921,0,0,0-6.927,11.929c0,5.805,3.547,10.966,6.131,14.743l.5.815c2.508,3.688,5.91,7.82,7.633,9.865a116.751,116.751,0,0,0,7.633-9.865l.522-.759c2.584-3.774,6.118-8.934,6.118-14.74v-.815a11.068,11.068,0,0,0,2.915.47,2.942,2.942,0,0,0,.03.345c0,6.676-3.823,12.251-6.611,16.327l-.509.759a143.018,143.018,0,0,1-8.961,11.436l-1.108,1.272Zm-7.269-30.354a8.28,8.28,0,0,1,8.363-8.195,8.28,8.28,0,0,1,8.362,8.195,8.279,8.279,0,0,1-8.362,8.192A8.279,8.279,0,0,1-13089.171-1828.627Zm2.919,0a5.39,5.39,0,0,0,5.444,5.332v-.013a5.389,5.389,0,0,0,5.443-5.319,5.39,5.39,0,0,0-5.443-5.335A5.393,5.393,0,0,0-13086.252-1828.627Zm15.66-9.224a7.223,7.223,0,0,1,7.295-7.15,7.225,7.225,0,0,1,7.3,7.15,7.225,7.225,0,0,1-7.3,7.15A7.223,7.223,0,0,1-13070.592-1837.851Z" transform="translate(13097.999 1845)"/></g></svg>