<svg xmlns="http://www.w3.org/2000/svg" width="48" height="38" viewBox="0 0 48 38"><defs><style>.a{fill:#d9895b;}</style></defs><g transform="translate(0)"><path class="a" d="M42.548,41.131H7.327A5.09,5.09,0,0,1,2.25,36.039V10.716A5.084,5.084,0,0,1,7.327,5.625h24.41a.87.87,0,0,1,0,1.74H7.327a3.346,3.346,0,0,0-3.342,3.351V36.039A3.35,3.35,0,0,0,7.327,39.39h35.22a3.35,3.35,0,0,0,3.342-3.351V21.584a.868.868,0,1,1,1.736,0V36.039A5.09,5.09,0,0,1,42.548,41.131Z" transform="translate(-2.25 -3.131)"/><path class="a" d="M22.769,23.683a.865.865,0,0,1-.533-.183L7.085,11.682a.869.869,0,0,1,1.066-1.374L22.777,21.716,31.4,15.19a.869.869,0,0,1,1.046,1.389l-9.154,6.928A.865.865,0,0,1,22.769,23.683Z" transform="translate(-0.016 -0.878)"/><path class="a" d="M37.091,10.692a5.045,5.045,0,1,1-5.045-5.059,5.052,5.052,0,0,1,5.045,5.059Z" transform="translate(9.221 -3.945)"/><path class="a" d="M32.607,18a6.747,6.747,0,1,1,6.728-6.747A6.737,6.737,0,0,1,32.607,18Zm0-10.119a3.376,3.376,0,1,0,3.361,3.376,3.372,3.372,0,0,0-3.361-3.376Z" transform="translate(8.665 -4.508)"/></g></svg>