<svg xmlns="http://www.w3.org/2000/svg" width="14" height="14" viewBox="0 0 14 14"><defs><style>.a{fill:#fff;}</style></defs><g transform="translate(-3 -3)"><path class="a" d="M25,10a7,7,0,0,0-7-7V4.4A5.6,5.6,0,0,1,23.6,10Z" transform="translate(-8)"/><path class="a" d="M3,10.2V6.7A.7.7,0,0,1,3.7,6H7.2a.7.7,0,0,1,.7.7V9.5a.7.7,0,0,1-.7.7H5.8a5.6,5.6,0,0,0,5.6,5.6V14.4a.7.7,0,0,1,.7-.7h2.8a.7.7,0,0,1,.7.7v3.5a.7.7,0,0,1-.7.7H11.4A8.4,8.4,0,0,1,3,10.2Z" transform="translate(0 -1.6)"/><path class="a" d="M21.88,11.593A4.193,4.193,0,0,1,22.2,13.2H20.94A2.939,2.939,0,0,0,18,10.26V9a4.2,4.2,0,0,1,3.88,2.593Z" transform="translate(-8 -3.2)"/></g></svg>