<svg xmlns="http://www.w3.org/2000/svg" width="48" height="48" viewBox="0 0 48 48"><defs><style>.a{fill:#d9895b;}</style></defs><path class="a" d="M38.129,49.653a6.418,6.418,0,0,1-1.389-.156A46.776,46.776,0,0,1,13.651,37.066,46.768,46.768,0,0,1,1.148,13.98,6.6,6.6,0,0,1,3.023,7.9L8.58,2.43a2.742,2.742,0,0,1,2.139-.767A2.769,2.769,0,0,1,12.734,2.9L19.68,13.4a2.314,2.314,0,0,1-.153,2.7L16.04,20.359a26.912,26.912,0,0,0,5.793,8.368,26.731,26.731,0,0,0,8.432,5.811l4.32-3.509a2.237,2.237,0,0,1,2.584-.17L47.659,37.79a2.846,2.846,0,0,1,1.33,2.068,2.882,2.882,0,0,1-.761,2.35L42.81,47.692a6.511,6.511,0,0,1-4.682,1.961ZM10.5,4.476,4.94,9.945A3.66,3.66,0,0,0,3.9,13.355,43.9,43.9,0,0,0,15.582,35.034,44,44,0,0,0,37.309,46.726a3.765,3.765,0,0,0,3.473-1.051L46.2,40.191,36.073,33.5l-4.64,3.779a1.365,1.365,0,0,1-1.278.242A27.809,27.809,0,0,1,19.93,30.772a27.728,27.728,0,0,1-6.765-10.229,1.444,1.444,0,0,1,.333-1.35l3.751-4.589Z" transform="translate(-1.013 -1.653)"/></svg>