<svg xmlns="http://www.w3.org/2000/svg" width="43.593" height="41.567" viewBox="0 0 43.593 41.567"><defs><style>.a{fill:#fff;}</style></defs><g transform="translate(-1.348 -4.977)"><path class="a" d="M25.4,5.5a1.9,1.9,0,0,0-2.8.2,2,2,0,1,0,2.8-.2Z" transform="translate(1.104)"/><path class="a" d="M31.5,8.4a2.2,2.2,0,0,0,.2,3.1,2.3,2.3,0,1,0,3-3.4,2.2,2.2,0,0,0-3.2.3Z" transform="translate(1.61)"/><path class="a" d="M41.9,19.2a2.7,2.7,0,1,0-1.886.986A2.7,2.7,0,0,0,41.9,19.2Z" transform="translate(2 0.574)"/><path class="a" d="M42,27.6a3.5,3.5,0,1,0,.108,4.652A3.5,3.5,0,0,0,42,27.6Z" transform="translate(2 1.321)"/><path class="a" d="M26.1,37.1a4.5,4.5,0,1,0,6.3-.5,4.4,4.4,0,0,0-6.3.5Z" transform="translate(1.451 2)"/><path class="a" d="M9.9,34.3a5.1,5.1,0,0,0,.5,7.1,5,5,0,1,0-.5-7.1Z" transform="translate(0.464 2)"/><circle class="a" cx="5.518" cy="5.518" r="5.518" transform="matrix(0.997, -0.08, 0.08, 0.997, 1.348, 17.895)"/></g></svg>