<svg xmlns="http://www.w3.org/2000/svg" width="16.667" height="16" viewBox="0 0 16.667 16"><defs><style>.a{fill:#d9895b;}</style></defs><path class="a" d="M16.666,6.2a.73.73,0,0,1-.261.484L12.77,10.253l.862,5.041a1.508,1.508,0,0,1,.01.2.6.6,0,0,1-.105.358.353.353,0,0,1-.306.146.8.8,0,0,1-.4-.121L8.333,13.5l-4.5,2.379a.846.846,0,0,1-.4.121.363.363,0,0,1-.315-.146.6.6,0,0,1-.106-.358,1.659,1.659,0,0,1,.02-.2L3.9,10.253.25,6.684A.77.77,0,0,1,0,6.2q0-.373.561-.464L5.589,5,7.842.413Q8.033,0,8.333,0t.491.413L11.077,5l5.028.736q.561.091.561.464Z"/></svg>