<svg xmlns="http://www.w3.org/2000/svg" width="63.998" height="48" viewBox="0 0 63.998 48"><defs><style>.a{fill:#d9895b;}</style></defs><path class="a" d="M48,48a8.009,8.009,0,0,1-8-8H20A8,8,0,1,1,4,40c0-.107,0-.218.007-.339A6.009,6.009,0,0,1,0,34V6A6.007,6.007,0,0,1,6,0H42a6.007,6.007,0,0,1,6,6v6H52.08a5.975,5.975,0,0,1,4.679,2.253l5.923,7.4A6.019,6.019,0,0,1,64,25.406V34a6.007,6.007,0,0,1-6,6H56A8.01,8.01,0,0,1,48,48Zm0-12a4,4,0,1,0,4,4A4,4,0,0,0,48,36ZM12,36a4,4,0,1,0,4,4A4,4,0,0,0,12,36ZM48,16V32a8,8,0,0,1,6.93,4H58a2,2,0,0,0,2-2V25.4a2.008,2.008,0,0,0-.439-1.247l-5.92-7.4A1.991,1.991,0,0,0,52.08,16ZM12,32a8,8,0,0,1,6.93,4H41.07A8.035,8.035,0,0,1,44,33.07V6a2,2,0,0,0-2-2H6A2,2,0,0,0,4,6V34a2,2,0,0,0,1.176,1.822A7.994,7.994,0,0,1,12,32Z"/></svg>