<svg xmlns="http://www.w3.org/2000/svg" width="63.998" height="48" viewBox="0 0 63.998 48"><defs><style>.a{fill:#d9895b;fill-rule:evenodd;}</style></defs><g transform="translate(0 -4.5)"><path class="a" d="M0,10.5a6,6,0,0,1,6-6H42a6,6,0,0,1,6,6v28H44v-28a2,2,0,0,0-2-2H6a2,2,0,0,0-2,2v28a2,2,0,0,0,2,2v4a6,6,0,0,1-6-6Zm18,30H42v4H18Z" transform="translate(0 0)"/><path class="a" d="M42.25,11.25h8.08A6,6,0,0,1,55.009,13.5l5.924,7.4a6,6,0,0,1,1.316,3.753V33.25a6,6,0,0,1-6,6h-4v-4h4a2,2,0,0,0,2-2v-8.6a2,2,0,0,0-.439-1.248L51.889,16a2,2,0,0,0-1.559-.75H46.25v18h-4Zm-32,32a4,4,0,1,0-4-4A4,4,0,0,0,10.25,43.25Zm0,4a8,8,0,1,0-8-8A8,8,0,0,0,10.25,47.25Z" transform="translate(1.75 5.25)"/><path class="a" d="M30.5,34.5a4,4,0,1,0-4-4A4,4,0,0,0,30.5,34.5Zm0,4a8,8,0,1,0-8-8A8,8,0,0,0,30.5,38.5Z" transform="translate(17.5 14)"/></g></svg>