<svg xmlns="http://www.w3.org/2000/svg" width="48" height="48" viewBox="0 0 48 48"><defs><style>.a{fill:#fff;}</style></defs><path class="a" d="M30.781,27a14.325,14.325,0,0,1,3.047,1.364,13.558,13.558,0,0,1,2.8,1.643,1.306,1.306,0,0,1,.062.464,6.488,6.488,0,0,1-.532,2.357,4.181,4.181,0,0,1-2.218,2.031,7.436,7.436,0,0,1-3.188.823q-1.781,0-5.937-1.922A17.82,17.82,0,0,1,19.5,30.1a40.952,40.952,0,0,1-4.625-5.737,10.791,10.791,0,0,1-2.218-6.016V18.1a6.836,6.836,0,0,1,2.313-4.9,2.374,2.374,0,0,1,1.625-.682,4.975,4.975,0,0,1,.563.047,5.063,5.063,0,0,0,.593.047,1.292,1.292,0,0,1,.828.2,2.232,2.232,0,0,1,.485.853q.25.62,1.031,2.729a18.324,18.324,0,0,1,.782,2.326A3.145,3.145,0,0,1,19.8,20.509q-1.078,1.133-1.079,1.44a.879.879,0,0,0,.156.464,13.988,13.988,0,0,0,3.188,4.249,19.954,19.954,0,0,0,4.718,3.131,1.392,1.392,0,0,0,.688.218q.468,0,1.688-1.5T30.779,27ZM24.438,43.438a19.232,19.232,0,0,0,7.61-1.55A19.252,19.252,0,0,0,42.5,31.516a19.026,19.026,0,0,0,0-15.1A19.6,19.6,0,0,0,38.313,10.2a19.823,19.823,0,0,0-6.265-4.155,19.45,19.45,0,0,0-15.219,0A19.823,19.823,0,0,0,10.563,10.2a19.6,19.6,0,0,0-4.188,6.217A19.155,19.155,0,0,0,8.563,35.376L6.094,42.6l7.563-2.387a19.322,19.322,0,0,0,10.781,3.225Zm0-42.853a23.05,23.05,0,0,1,9.14,1.86,23.8,23.8,0,0,1,7.515,4.993A23.639,23.639,0,0,1,46.125,14.9a22.872,22.872,0,0,1,0,18.139,23.577,23.577,0,0,1-5.032,7.457,23.836,23.836,0,0,1-7.515,4.993,23.037,23.037,0,0,1-9.14,1.86A23.345,23.345,0,0,1,13.031,44.43L0,48.585,4.25,36.028A23.086,23.086,0,0,1,2.75,14.9,23.587,23.587,0,0,1,7.782,7.438,23.847,23.847,0,0,1,15.3,2.445a23.012,23.012,0,0,1,9.14-1.86Z" transform="translate(0 -0.585)"/></svg>